<?xml version="1.0" standalone="no"?>
<!DOCTYPE svg PUBLIC "-//W3C//DTD SVG 20010904//EN"
 "http://www.w3.org/TR/2001/REC-SVG-20010904/DTD/svg10.dtd">
<svg version="1.0" xmlns="http://www.w3.org/2000/svg"
 width="32.000000pt" height="32.000000pt" viewBox="0 0 32.000000 32.000000"
 preserveAspectRatio="xMidYMid meet">
<metadata>
Created by potrace 1.10, written by Peter Selinger 2001-2011
</metadata>
<g transform="translate(0.000000,32.000000) scale(0.100000,-0.100000)"
fill="#000000" stroke="none">
<path d="M130 270 c-13 -13 -20 -33 -20 -60 0 -25 -5 -40 -12 -41 -7 -1 -24
-3 -36 -4 -24 -2 -76 -45 -55 -45 6 0 13 7 17 15 6 16 36 21 36 6 0 -4 -9 -19
-19 -33 -11 -13 -16 -29 -13 -35 4 -7 15 7 25 31 11 26 28 48 44 55 14 6 27
10 29 8 8 -8 -25 -82 -35 -79 -12 2 -35 -47 -26 -56 3 -4 8 4 12 16 3 12 12
22 19 22 8 0 14 4 14 9 0 5 9 7 20 4 12 -3 22 1 26 11 8 21 42 21 65 0 10 -9
22 -13 28 -10 13 8 3 63 -17 94 -13 20 -13 22 3 22 14 0 16 6 10 37 -9 52 -11
53 -56 53 -26 0 -46 -7 -59 -20z m100 -16 c14 -37 13 -49 -6 -34 -12 11 -15
11 -12 -1 5 -21 -44 -24 -59 -3 -12 16 -13 16 -13 1 0 -28 4 -31 41 -28 35 2
37 1 53 -45 17 -51 13 -70 -10 -40 -18 26 -65 28 -72 4 -9 -37 -25 -18 -18 23
4 26 2 46 -5 55 -14 17 -4 80 14 87 7 3 27 6 45 6 26 1 34 -4 42 -25z"/>
<path d="M183 233 c-18 -7 -16 -23 2 -23 8 0 15 7 15 15 0 8 -1 15 -2 14 -2 0
-9 -3 -15 -6z"/>
</g>
</svg>
